<svg id="Vrstva_1" data-name="Vrstva 1" xmlns="http://www.w3.org/2000/svg" viewBox="0 0 156.07 158.25"><defs><style>.cls-1{fill:#ff933e;}.cls-1,.cls-2,.cls-3{fill-rule:evenodd;}.cls-2{fill:#fff;}</style></defs><title>gymjes_logo</title><path class="cls-1" d="M78,18.37a60.76,60.76,0,1,1-61,60.74A60.87,60.87,0,0,1,78,18.37Z"/><path class="cls-2" d="M97.12,100c-1.09,1.31-1.8,3-2.13,6.28l-.2,5.56-.25,8-.05,1.93-.31,10.8a6.08,6.08,0,0,1-2.86,4l-4.78.23c-4,3.65-11.77,4.13-16.17-.13l-4.61-.1a3.74,3.74,0,0,1-2.86-4l-.51-17.36-.12-5.47c-.11-6-1-8.35-2.59-10.07a42.65,42.65,0,1,1,37.44.33Z"/><path class="cls-1" d="M79.25,68.43a4.89,4.89,0,1,1-4.89,4.89A4.9,4.9,0,0,1,79.25,68.43Z"/><path class="cls-3" d="M82.31,101.28c-3,2.84-7.08,7.19-8.17,12.46-1.34,6.53,1.19,11.92,4.58,12.15,1.69.1,4.1-5.19,4.23-9.82C83.1,110.12,83.45,106.78,82.31,101.28ZM84.94,79l2.46,10.4a31.8,31.8,0,0,1,6.35-3.06l2,6.63a61.37,61.37,0,0,0-6.91,3.64c.81,6.89,1.77,13.49,1.09,20.45a25.08,25.08,0,0,1-3.11,10.53c-3.09,4.91-8,6.23-11.82,4.31-9.75-4.84-10.38-18.23-3.7-28.56,2.91-3.84,6.3-7.61,9.82-9.94l-.91-4.53a37.62,37.62,0,0,1-17.54-.53c-6.25-1.6-12-4.46-16.38-9.34A13.77,13.77,0,0,1,44.37,63.9c5.54-11.42,19.69-14.63,31.29-15.34,12-.68,26.82,1.34,35.33,10.58l-5.34,4.18C97.52,56,84,54.51,73.45,55.6c-7.84.83-18.8,3.21-22.5,11-1.44,3-1.42,6.38,1.93,9.39A24.58,24.58,0,0,0,63,81.26C71.81,83.82,79.17,83.14,84.94,79Z"/></svg>